<svg xmlns="http://www.w3.org/2000/svg" viewBox="0 0 123.22 67.96"><defs><style>.cls-1{fill:#e0261a;}</style></defs><g id="Capa_2" data-name="Capa 2"><g id="Capa_1-2" data-name="Capa 1"><path class="cls-1" d="M119.51,40.53a44.42,44.42,0,0,1-6.94,9.52,47.1,47.1,0,0,1-8.9,7.2,59.59,59.59,0,0,1-10.5,5.19,22,22,0,0,1-2.36.82,9.47,9.47,0,0,1-1.4.32,1,1,0,0,1-.8-.17c-.19-.17-.46-.52-.38-.79s.76-.71,1-.92c.49-.4,1-.81,1.45-1.22,1-.81,1.91-1.64,2.89-2.43,1.71-1.38,3.39-2.81,5-4.32A51.28,51.28,0,0,0,107,43.65c.22-.35.43-.69.63-1,5.34-9.1,5.15-17.94-.55-24.59-4.94-5.77-11.49-8.13-18.87-8.59A37,37,0,0,0,64.6,16.2c-2.25,1.53-3.68,1.49-6-.07C47.19,8.63,35,6.17,22.2,12.18c-10.82,5.1-13.91,17.19-7.41,27.27C19.06,46,25.47,50,32.35,53.32a80.46,80.46,0,0,0,24.94,7.41,18.43,18.43,0,0,0,8-.91,33,33,0,0,0,14.31-9.89,21.5,21.5,0,0,0,5.31-13.38c.15-4.09-.83-7.87-4.72-10.06S72.4,25.23,69,27.75A37.27,37.27,0,0,0,63.71,33c-2.29,2.56-2.46,2.59-4.39-.2-3.07-4.44-6.92-7.66-12.7-7.51-5.62.13-9.56,5-8,10.36a20.33,20.33,0,0,0,4.45,7.66,31,31,0,0,0,10.13,6.93c.61.29,1.24.55,1.87.8l1.89.77c.63.27,1.25.55,1.85.86s1,.59,1.55.9a.47.47,0,0,1,.2.24.6.6,0,0,1,0,.46,2.18,2.18,0,0,1-.31.22,2.7,2.7,0,0,1-1,.19,9.92,9.92,0,0,1-1.09,0h0A15.81,15.81,0,0,1,56,54.44c-.65-.11-1.29-.25-1.93-.37-2-.41-4.05-.9-6-1.5a47.62,47.62,0,0,1-11.24-5,43.44,43.44,0,0,1-4.1-2.91,23.86,23.86,0,0,1-6.22-7.49c-4.47-8.81,1-18.27,11.19-20,8.36-1.38,15.39,1.4,21.46,7,.62.57,1.21,1.17,1.84,1.72,0,0,0,0,0,0s0,0,.06,0c1.23-.82,2.52-1.53,3.78-2.31s2.6-1.59,3.91-2.36l0,0c1.32-.78,2.67-1.53,4-2.22A18,18,0,0,1,85.06,17.5c9.48,2.16,14.37,10.9,11.59,20.83C94,48,87.79,55.08,79.56,60.36c-3.86,2.47-8.22,4.16-12.38,6.17-4.81,2.34-9.74,1.3-14.65.44-14.87-2.64-28.59-7.89-40.09-18C7,44.18,2.7,38.53.87,31.41-2.62,17.81,4.6,5.47,18.3,1.84,32.79-2,46.49.21,59.17,8.22a3.55,3.55,0,0,0,4.52,0C76.63-.13,90.47-2.42,105.15,2.87,121.64,8.8,127.88,25.15,119.51,40.53Z"/></g></g></svg>