<svg xmlns="http://www.w3.org/2000/svg" viewBox="0 0 29.07 24.35"><defs><style>.cls-1{fill:#fff;}</style></defs><g id="Capa_2" data-name="Capa 2"><g id="Capa_1-2" data-name="Capa 1"><path class="cls-1" d="M17.77,20.58c0,1.16,0,2.31,0,3.46,0,.26-.07.31-.26.31-2,0-4,0-6,0-.19,0-.26-.05-.26-.31,0-1.15,0-2.3,0-3.46,0-.26.07-.3.26-.3,1,0,2,0,3,0s2,0,3,0C17.7,20.28,17.77,20.32,17.77,20.58Z"/><path class="cls-1" d="M29.07,10.54c0,1.11,0,2.23,0,3.35,0,.24-.07.32-.38.32q-14.14,0-28.31,0c-.29,0-.38-.07-.38-.32,0-1.11,0-2.23,0-3.34,0-.31.07-.4.46-.4H28.6C29,10.15,29.08,10.22,29.07,10.54Z"/><path class="cls-1" d="M29.07.44c0,1.11,0,2.21,0,3.32,0,.23,0,.32-.24.32H0V0L.35,0H28.71C29,0,29.08.07,29.07.44Z"/><path class="cls-1" d="M29.07,10.54c0,1.11,0,2.23,0,3.35,0,.24-.07.32-.38.32q-14.14,0-28.31,0c-.29,0-.38-.07-.38-.32,0-1.11,0-2.23,0-3.34,0-.31.07-.4.46-.4H28.6C29,10.15,29.08,10.22,29.07,10.54Z"/><path class="cls-1" d="M29.07,24c0,.26-.3.31-1.16.31q-13.38,0-26.76,0C.3,24.35,0,24.3,0,24c.05-1.15.06-2.3,0-3.46,0-.26.32-.3,1.15-.3,4.51,0,9,0,13.51,0s8.84,0,13.25,0c.84,0,1.17,0,1.16.3A33.28,33.28,0,0,0,29.07,24Z"/></g></g></svg>