<svg xmlns="http://www.w3.org/2000/svg" viewBox="0 0 51.42 40.01"><defs><style>.cls-1{fill:#fff;}</style></defs><g id="Capa_2" data-name="Capa 2"><g id="Capa_1-2" data-name="Capa 1"><path class="cls-1" d="M51.42,19.3c-.12-.15,0-.35-.08-.51a9.16,9.16,0,0,0-.59-2.48,19.13,19.13,0,0,0-3-4.92C42.67,4.89,36.25.75,27.89.09A25.78,25.78,0,0,0,13,3.26,30.69,30.69,0,0,0,1.47,14.74,10.07,10.07,0,0,0,.82,24a19.56,19.56,0,0,0,2.92,4.65c5,6.5,11.48,10.62,19.84,11.29a25.73,25.73,0,0,0,14.78-3.09A31.06,31.06,0,0,0,50.12,25.06a9.17,9.17,0,0,0,1.22-3.83c.09-.16,0-.36.08-.52Zm-5.1,3.75A26.2,26.2,0,0,1,36,33.19a21.58,21.58,0,0,1-12.74,2.4C17,34.91,12,31.77,7.92,27a27.81,27.81,0,0,1-2.61-3.61A5.93,5.93,0,0,1,5.13,17a26.59,26.59,0,0,1,9.6-9.76A22.06,22.06,0,0,1,26.12,4.28c6.63.06,12.27,3,16.87,8.09a29.18,29.18,0,0,1,3.16,4.26A5.93,5.93,0,0,1,46.32,23.05Z"/><path class="cls-1" d="M25.44,9.3a10.71,10.71,0,1,0,11,10.43A10.73,10.73,0,0,0,25.44,9.3Zm.29,17.13a6.43,6.43,0,1,1,6.42-6.35A6.43,6.43,0,0,1,25.73,26.43Z"/></g></g></svg>