<svg xmlns="http://www.w3.org/2000/svg" viewBox="0 0 38.14 29.68"><defs><style>.cls-1{fill:#fff;}</style></defs><g id="Capa_2" data-name="Capa 2"><g id="Capa_1-2" data-name="Capa 1"><path class="cls-1" d="M38.14,14.32c-.09-.12,0-.27-.06-.39a7.19,7.19,0,0,0-.44-1.83,14.48,14.48,0,0,0-2.25-3.66C31.65,3.62,26.89.56,20.68.07A19.12,19.12,0,0,0,9.62,2.41a22.87,22.87,0,0,0-8.53,8.52,7.47,7.47,0,0,0-.48,6.86,14.36,14.36,0,0,0,2.17,3.44c3.74,4.82,8.5,7.88,14.7,8.38a19.14,19.14,0,0,0,11-2.29,23.13,23.13,0,0,0,8.72-8.73,6.93,6.93,0,0,0,.91-2.84c.06-.13,0-.27.06-.39ZM34.35,17.1a19.43,19.43,0,0,1-7.63,7.52,16.05,16.05,0,0,1-9.45,1.78A17,17,0,0,1,5.87,20a21.91,21.91,0,0,1-1.93-2.68,4.39,4.39,0,0,1-.13-4.76,19.72,19.72,0,0,1,7.11-7.23,16.39,16.39,0,0,1,8.45-2.18,16.64,16.64,0,0,1,12.51,6,20.72,20.72,0,0,1,2.35,3.16A4.39,4.39,0,0,1,34.35,17.1Z"/><path class="cls-1" d="M18.86,6.9A7.94,7.94,0,1,0,27,14.63,8,8,0,0,0,18.86,6.9Zm.23,12.7a4.77,4.77,0,1,1,4.76-4.71A4.76,4.76,0,0,1,19.09,19.6Z"/></g></g></svg>